REM DIRINDEX 1\2\6,1\2\7,1\2\8,1\2\9,1\3\10,1\3\11,1\4\12,1\4\13,1\4\14,1\5\15,1\5\16,1\5\17
REM DIRNAME cjc020,folder01,folder02,folder03,folder04,folder05,folder06,folder07,folder08,folder09,folder10,folder11,folder12,folder13,folder14,folder15,folder16
TITLE ""
FILE "1900_3_015 sec03_0231_0246.mp3" MP3
  TRACK 01 AUDIO
    TITLE "0:"
    INDEX 01 00:00:00
  TRACK 02 AUDIO
    TITLE "17:cjc020_6430"
    INDEX 01 00:00:17
  TRACK 03 AUDIO
    TITLE "0:"
    INDEX 01 00:01:32
  TRACK 04 AUDIO
    TITLE "16:cjc020_6431"
    INDEX 01 00:01:40
  TRACK 05 AUDIO
    TITLE "0:"
    INDEX 01 00:02:53
  TRACK 06 AUDIO
    TITLE "17:cjc020_6432"
    INDEX 01 00:03:39
  TRACK 07 AUDIO
    TITLE "0:"
    INDEX 01 00:04:50
  TRACK 08 AUDIO
    TITLE "16:cjc020_6433"
    INDEX 01 00:04:60
  TRACK 09 AUDIO
    TITLE "0:"
    INDEX 01 00:05:57
  TRACK 10 AUDIO
    TITLE "17:cjc020_6434"
    INDEX 01 00:06:39
  TRACK 11 AUDIO
    TITLE "0:"
    INDEX 01 00:07:51
  TRACK 12 AUDIO
    TITLE "16:cjc020_6435"
    INDEX 01 00:07:54
  TRACK 13 AUDIO
    TITLE "0:"
    INDEX 01 00:08:62
  TRACK 14 AUDIO
    TITLE "17:cjc020_6436"
    INDEX 01 00:09:42
  TRACK 15 AUDIO
    TITLE "0:"
    INDEX 01 00:10:59
  TRACK 16 AUDIO
    TITLE "16:cjc020_6437"
    INDEX 01 00:10:66
  TRACK 17 AUDIO
    TITLE "0:"
    INDEX 01 00:12:05
  TRACK 18 AUDIO
    TITLE "17:cjc020_6438"
    INDEX 01 00:12:65
  TRACK 19 AUDIO
    TITLE "0:"
    INDEX 01 00:13:59
  TRACK 20 AUDIO
    TITLE "16:cjc020_6439"
    INDEX 01 00:13:67
  TRACK 21 AUDIO
    TITLE "0:"
    INDEX 01 00:14:74
  TRACK 22 AUDIO
    TITLE "17:cjc020_6440"
    INDEX 01 00:15:56
  TRACK 23 AUDIO
    TITLE "0:"
    INDEX 01 00:16:71
  TRACK 24 AUDIO
    TITLE "16:cjc020_6441"
    INDEX 01 00:17:00
  TRACK 25 AUDIO
    TITLE "0:"
    INDEX 01 00:18:05
  TRACK 26 AUDIO
    TITLE "17:cjc020_6442"
    INDEX 01 00:18:68
  TRACK 27 AUDIO
    TITLE "0:"
    INDEX 01 00:20:20
  TRACK 28 AUDIO
    TITLE "16:cjc020_6443"
    INDEX 01 00:20:28
  TRACK 29 AUDIO
    TITLE "0:"
    INDEX 01 00:21:47
  TRACK 30 AUDIO
    TITLE "17:cjc020_6444"
    INDEX 01 00:22:36
  TRACK 31 AUDIO
    TITLE "0:"
    INDEX 01 00:24:29
  TRACK 32 AUDIO
    TITLE "16:cjc020_6445"
    INDEX 01 00:24:33
  TRACK 33 AUDIO
    TITLE "0:"
    INDEX 01 00:25:50
  TRACK 34 AUDIO
    TITLE "17:cjc020_6446"
    INDEX 01 00:26:32
  TRACK 35 AUDIO
    TITLE "0:"
    INDEX 01 00:27:59
  TRACK 36 AUDIO
    TITLE "16:cjc020_6447"
    INDEX 01 00:27:67
  TRACK 37 AUDIO
    TITLE "0:"
    INDEX 01 00:29:03
  TRACK 38 AUDIO
    TITLE "17:cjc020_6448"
    INDEX 01 00:29:60
  TRACK 39 AUDIO
    TITLE "0:"
    INDEX 01 00:30:65
  TRACK 40 AUDIO
    TITLE "16:cjc020_6449"
    INDEX 01 00:30:73
  TRACK 41 AUDIO
    TITLE "0:"
    INDEX 01 00:32:11
  TRACK 42 AUDIO
    TITLE "17:cjc020_6450"
    INDEX 01 00:32:66
  TRACK 43 AUDIO
    TITLE "0:"
    INDEX 01 00:34:04
  TRACK 44 AUDIO
    TITLE "16:cjc020_6451"
    INDEX 01 00:34:06
  TRACK 45 AUDIO
    TITLE "0:"
    INDEX 01 00:35:08
  TRACK 46 AUDIO
    TITLE "17:cjc020_6452"
    INDEX 01 00:35:64
  TRACK 47 AUDIO
    TITLE "0:"
    INDEX 01 00:36:74
  TRACK 48 AUDIO
    TITLE "16:cjc020_6453"
    INDEX 01 00:37:08
  TRACK 49 AUDIO
    TITLE "0:"
    INDEX 01 00:38:08
  TRACK 50 AUDIO
    TITLE "17:cjc020_6454"
    INDEX 01 00:38:59
  TRACK 51 AUDIO
    TITLE "0:"
    INDEX 01 00:40:60
  TRACK 52 AUDIO
    TITLE "16:cjc020_6455"
    INDEX 01 00:40:72
  TRACK 53 AUDIO
    TITLE "0:"
    INDEX 01 00:42:08
  TRACK 54 AUDIO
    TITLE "17:cjc020_6456"
    INDEX 01 00:42:68
  TRACK 55 AUDIO
    TITLE "0:"
    INDEX 01 00:43:68
  TRACK 56 AUDIO
    TITLE "16:cjc020_6457"
    INDEX 01 00:44:01
  TRACK 57 AUDIO
    TITLE "0:"
    INDEX 01 00:45:08
  TRACK 58 AUDIO
    TITLE "17:cjc020_6458"
    INDEX 01 00:45:67
  TRACK 59 AUDIO
    TITLE "0:"
    INDEX 01 00:47:11
  TRACK 60 AUDIO
    TITLE "16:cjc020_6459"
    INDEX 01 00:47:13
  TRACK 61 AUDIO
    TITLE "0:"
    INDEX 01 00:48:42
  TRACK 62 AUDIO
    TITLE "17:cjc020_6460"
    INDEX 01 00:49:25
  TRACK 63 AUDIO
    TITLE "0:"
    INDEX 01 00:50:11
  TRACK 64 AUDIO
    TITLE "16:cjc020_6461"
    INDEX 01 00:50:19
  TRACK 65 AUDIO
    TITLE "0:"
    INDEX 01 00:51:16
